<svg width="287" height="42" viewBox="0 0 287 42" fill="none"
    xmlns="http://www.w3.org/2000/svg">
    <path d="M127.854 19.1297L124.465 14.494H150.466V1H91.0363L104.033 19.1297H127.854Z" fill="#B7FFFA" stroke="#B7FFFA" stroke-miterlimit="10"/>
    <path d="M96.4293 14.494H76.1578V19.1297H96.4293V14.494Z" fill="#B7FFFA" stroke="#B7FFFA" stroke-miterlimit="10"/>
    <path d="M105.127 22.9545L108.768 28.0262H96.4293V22.9545H76.1578V40.9159H142.09L128.971 22.9545H105.127Z" fill="#B7FFFA" stroke="#B7FFFA" stroke-miterlimit="10"/>
    <path d="M165.865 22.9545H143.184L130.248 40.9159H182.082L191.384 28.0262H162.193L165.865 22.9545Z" stroke="#B7FFFA" stroke-miterlimit="10"/>
    <path d="M166.967 19.1297L170.677 13.9968H191.384V19.1297H211.656V1H157.343L144.285 19.1297H166.967Z" stroke="#B7FFFA" stroke-miterlimit="10"/>
    <path d="M211.656 22.9545H191.384V40.9159H211.656V22.9545Z" stroke="#B7FFFA" stroke-miterlimit="10"/>
    <path d="M227.904 19.1297V13.9432H255.06L251.258 19.1297H272.7L274.108 17.1331L285.513 1H207.632V19.1297H227.904Z" fill="#B7FFFA" stroke="#B7FFFA" stroke-miterlimit="10"/>
    <path d="M207.632 22.9545V40.9159H227.904V35.4617H262.771L271.614 22.9545H207.632Z" fill="#B7FFFA" stroke="#B7FFFA" stroke-miterlimit="10"/>
    <path d="M36.6168 23.031H13.9432L1 41H52.834L62.1436 28.1103H32.9526L36.6168 23.031Z" stroke="#B7FFFA" stroke-miterlimit="10"/>
    <path d="M37.7259 19.2062L41.436 14.0809H62.1436V19.2062H82.4151V1.08415H28.1026L15.0447 19.2062H37.7259Z" stroke="#B7FFFA" stroke-miterlimit="10"/>
    <path d="M82.4151 23.031H62.1436V40.9924H82.4151V23.031Z" stroke="#B7FFFA" stroke-miterlimit="10"/>
    <path d="M127.854 19.1297L124.465 14.494H150.466V1H91.0363L104.033 19.1297H127.854Z" fill="#B7FFFA" stroke="#B7FFFA" stroke-miterlimit="10"/>
    <path d="M96.4293 14.494H76.1578V19.1297H96.4293V14.494Z" fill="#B7FFFA" stroke="#B7FFFA" stroke-miterlimit="10"/>
    <path d="M105.127 22.9545L108.768 28.0262H96.4293V22.9545H76.1578V40.9159H142.09L128.971 22.9545H105.127Z" fill="#B7FFFA" stroke="#B7FFFA" stroke-miterlimit="10"/>
    <path d="M165.865 22.9545H143.184L130.248 40.9159H182.082L191.384 28.0262H162.193L165.865 22.9545Z" stroke="#B7FFFA" stroke-miterlimit="10"/>
    <path d="M166.967 19.1297L170.677 13.9968H191.384V19.1297H211.656V1H157.343L144.285 19.1297H166.967Z" stroke="#B7FFFA" stroke-miterlimit="10"/>
    <path d="M211.656 22.9545H191.384V40.9159H211.656V22.9545Z" stroke="#B7FFFA" stroke-miterlimit="10"/>
    <path d="M227.904 19.1297V13.9432H255.06L251.258 19.1297H272.7L274.108 17.1331L285.513 1H207.632V19.1297H227.904Z" fill="#B7FFFA" stroke="#B7FFFA" stroke-miterlimit="10"/>
    <path d="M207.632 22.9545V40.9159H227.904V35.4617H262.771L271.614 22.9545H207.632Z" fill="#B7FFFA" stroke="#B7FFFA" stroke-miterlimit="10"/>
    <path d="M36.6168 23.031H13.9432L1 41H52.834L62.1436 28.1103H32.9526L36.6168 23.031Z" stroke="#B7FFFA" stroke-miterlimit="10"/>
    <path d="M37.7259 19.2062L41.436 14.0809H62.1436V19.2062H82.4151V1.08415H28.1026L15.0447 19.2062H37.7259Z" stroke="#B7FFFA" stroke-miterlimit="10"/>
    <path d="M82.4151 23.031H62.1436V40.9924H82.4151V23.031Z" stroke="#B7FFFA" stroke-miterlimit="10"/>
</svg>
