<svg width="358" height="114" viewBox="0 0 358 114" fill="none"
    xmlns="http://www.w3.org/2000/svg">
    <path opacity="0.6" d="M89.3844 102.793C88.1395 103.658 86.8454 104.488 85.538 105.252L83.3292 101.51C84.5385 100.804 85.7343 100.041 86.8811 99.2417L89.3889 102.793H89.3844ZM83.5345 106.366C82.1958 107.076 80.8081 107.742 79.4114 108.341L77.6756 104.36C78.9607 103.805 80.2414 103.192 81.4818 102.535L83.5345 106.366ZM77.2918 109.207C75.8773 109.748 74.4182 110.246 72.959 110.672L71.723 106.508C73.0706 106.113 74.4137 105.656 75.7211 105.154L77.2918 109.202V109.207ZM70.7547 111.275C69.2822 111.644 67.7784 111.959 66.2791 112.212L65.5518 107.933C66.9351 107.702 68.3273 107.409 69.6838 107.067L70.7503 111.275H70.7547ZM64.0168 112.545C62.513 112.736 60.978 112.869 59.4609 112.94L59.2556 108.603C60.6567 108.537 62.0713 108.417 63.4635 108.239L64.0168 112.545ZM57.1762 113.002C55.6591 113.011 54.1196 112.962 52.6069 112.851L52.9282 108.523C54.3249 108.625 55.7439 108.674 57.1495 108.661L57.1807 113.002H57.1762ZM50.3312 112.638C48.823 112.465 47.3014 112.234 45.8155 111.941L46.6544 107.68C48.0287 107.946 49.4298 108.164 50.8265 108.324L50.3312 112.638ZM43.5844 111.462C42.1074 111.111 40.6259 110.698 39.1846 110.228L40.5367 106.1C41.8664 106.53 43.2318 106.912 44.5973 107.236L43.5844 111.457V111.462ZM37.0294 109.482C35.6059 108.958 34.187 108.368 32.8081 107.729L34.651 103.796C35.9228 104.386 37.2302 104.928 38.5465 105.416L37.0294 109.487V109.482ZM30.7555 106.726C29.4079 106.033 28.0693 105.274 26.7797 104.475L29.0911 100.791C30.2825 101.528 31.5141 102.229 32.7591 102.868L30.7555 106.726ZM24.8654 103.232C23.616 102.384 22.38 101.47 21.193 100.525L23.9328 97.1465C25.0261 98.0254 26.1684 98.8644 27.3241 99.6501L24.8654 103.237V103.232ZM22.3175 95.7927L19.4438 99.0597L19.3948 99.0197C18.2658 98.0388 17.1681 97.0001 16.124 95.9392L19.2475 92.9074C20.2113 93.8884 21.2287 94.8472 22.2684 95.7527L22.3175 95.7927ZM89.6209 15.8267C88.5277 14.9522 87.3853 14.1088 86.2296 13.3276L88.6838 9.73656C89.9377 10.5844 91.1738 11.4943 92.3562 12.4398L89.6209 15.8222V15.8267ZM17.7973 91.3716L14.5577 94.279C13.5403 93.156 12.5587 91.9797 11.635 90.7812L15.1021 88.1445C15.9544 89.2498 16.8602 90.3373 17.7973 91.376V91.3716ZM84.4581 12.1824C83.2667 11.4455 82.0307 10.7486 80.7902 10.1094L82.7893 6.25205C84.1369 6.94451 85.4755 7.69912 86.7651 8.49811L84.4581 12.1824ZM13.8527 86.4489L10.2829 88.9435C9.40835 87.7051 8.57838 86.4178 7.80641 85.1172L11.5681 82.92C12.2775 84.1229 13.045 85.3081 13.8527 86.4489ZM78.8938 9.18614C77.622 8.60021 76.3146 8.05423 74.9983 7.57039L76.511 3.49996C77.9344 4.02375 79.3578 4.61411 80.7322 5.24887L78.8938 9.18614ZM10.5373 81.0823L6.6864 83.1286C5.97245 81.797 5.30312 80.4165 4.69626 79.0271L8.69886 77.3004C9.25663 78.5832 9.87688 79.8528 10.5373 81.0823ZM73.0081 6.88237C71.6784 6.4518 70.3085 6.07006 68.9475 5.75046L69.956 1.52911C71.433 1.87978 72.9144 2.29259 74.3557 2.75423L73.0081 6.88237ZM7.89566 75.3518L3.82613 76.9142C3.27728 75.5027 2.78197 74.0556 2.34914 72.6041L6.53469 71.3701C6.93182 72.7062 7.39143 74.0467 7.89566 75.3473V75.3518ZM66.886 5.30658C65.5116 5.04024 64.106 4.82718 62.7138 4.67182L63.2002 0.357249C64.7084 0.525925 66.23 0.756746 67.7204 1.04971L66.886 5.31101V5.30658ZM5.97691 69.346L1.74674 70.4113C1.37638 68.9465 1.0551 67.4506 0.805218 65.9591L5.10678 65.2356C5.33882 66.6116 5.63332 67.9966 5.97691 69.346ZM60.6166 4.47651C59.2199 4.37441 57.7965 4.33003 56.3953 4.34334L56.3596 0.00214016C57.8768 -0.0111764 59.4163 0.037651 60.9289 0.148622L60.6166 4.47651ZM4.79443 63.1582L0.466091 63.7086C0.274216 62.2127 0.14035 60.6858 0.0644924 59.1766L4.42407 58.9679C4.491 60.3617 4.61594 61.7688 4.79443 63.1538V63.1582ZM54.2847 4.40549C52.8836 4.47207 51.4691 4.59636 50.0769 4.77391L49.5191 0.46822C51.0229 0.277349 52.5578 0.139745 54.075 0.068723L54.2847 4.40549ZM4.36606 56.8728L0.00202158 56.9083C-0.011365 55.3991 0.0421814 53.8677 0.149274 52.3629L4.49992 52.6781C4.39729 54.0719 4.35267 55.4834 4.36159 56.8772L4.36606 56.8728ZM47.9886 5.08463C46.6053 5.31989 45.2175 5.60842 43.8566 5.95465L42.7856 1.74661C44.2582 1.37375 45.7619 1.05859 47.2612 0.805573L47.993 5.08463H47.9886ZM4.70072 50.5874L0.36346 50.0991C0.533024 48.5943 0.76952 47.0851 1.05956 45.6025L5.34328 46.437C5.07555 47.8042 4.8569 49.198 4.70072 50.5874ZM41.8173 6.50951C40.4697 6.909 39.1266 7.36621 37.8192 7.8678L36.244 3.81956C37.6586 3.27358 39.1177 2.78086 40.5724 2.3503L41.8129 6.50951H41.8173ZM5.7895 44.3863L1.54594 43.3831C1.89846 41.9138 2.31344 40.4401 2.78197 39.0064L6.93182 40.3469C6.49899 41.6741 6.11524 43.0324 5.7895 44.3863ZM35.8647 8.66679C34.5796 9.22165 33.299 9.83865 32.063 10.4956L30.0059 6.6693C31.3445 5.95465 32.7323 5.28882 34.1245 4.68514L35.8647 8.66679ZM7.619 38.3716L3.52716 36.8624C4.0537 35.4464 4.64718 34.0349 5.28973 32.6633L9.24324 34.4965C8.64977 35.7616 8.10538 37.0622 7.619 38.3716ZM30.2156 11.5254C29.0108 12.2312 27.8149 12.9947 26.6681 13.7981L24.1604 10.247C25.4053 9.37701 26.6994 8.54694 28.0068 7.78346L30.2201 11.5254H30.2156ZM10.1714 32.61L6.29373 30.6214C6.98983 29.2808 7.74841 27.9492 8.55606 26.6664L12.2597 28.9612C11.519 30.1464 10.8184 31.3715 10.1758 32.61H10.1714ZM24.9636 15.041C23.8525 15.8888 22.7593 16.7899 21.7196 17.7265L18.7968 14.5039C19.9258 13.4918 21.1082 12.5153 22.313 11.5964L24.9636 15.041ZM13.4109 27.2035L9.80548 24.7621C10.6578 23.5148 11.5725 22.2896 12.5274 21.1089L15.9276 23.8299C15.0486 24.9174 14.2008 26.0538 13.4154 27.2035H13.4109ZM20.1801 19.1647C19.2029 20.1146 18.248 21.1222 17.3421 22.152L17.2797 22.2231L13.9955 19.3644L14.049 19.3023C15.0396 18.1793 16.0704 17.0917 17.1324 16.0619L20.1846 19.1647H20.1801Z" fill="#B7FFFA"/>
    <path d="M30.05 35.4282C24.4277 42.5215 21.9199 51.3682 22.9864 60.3347C24.0528 69.3056 28.5686 77.3222 35.6947 82.9151C42.8209 88.5081 51.7185 91.0027 60.7322 89.9418C69.7503 88.881 77.809 84.3888 83.4314 77.3C89.0538 70.2067 91.5615 61.36 90.495 52.3936C89.4286 43.4226 84.9128 35.406 77.7867 29.8131C70.6606 24.2201 61.7629 21.7255 52.7493 22.7864C43.7312 23.8473 35.6724 28.3394 30.05 35.4282ZM81.7402 76.0127C70.906 89.68 50.9153 92.0326 37.1762 81.255C23.4371 70.4775 21.0721 50.5914 31.9063 36.9241C42.7405 23.2569 62.7312 20.9043 76.4703 31.6818C90.2095 42.4594 92.5744 62.3455 81.7402 76.0127Z" fill="#B7FFFA"/>
    <path d="M80.6246 26.151C78.2106 24.2733 75.6359 22.7286 72.963 21.5079L75.7787 15.4622C66.6847 11.2719 56.2699 10.2155 46.4531 12.4882C36.4845 14.7964 27.4932 20.4781 21.1435 28.4902C16.1949 34.7357 12.9821 42.1797 11.8576 50.0098L18.5509 50.9597C18.127 53.9205 18.0512 56.9078 18.3144 59.8685L11.5899 60.4722C12.1387 66.5179 13.8656 72.2885 16.717 77.624C19.6709 83.1503 23.6959 87.9354 28.6757 91.8372C35.0432 96.8309 42.629 100.04 50.6208 101.114C58.3761 102.162 66.3143 101.19 73.5833 98.309L71.1335 92.2012C73.9046 91.1092 76.5596 89.6888 79.045 87.9532L82.8423 93.3198C86.421 90.8118 89.6249 87.7934 92.3558 84.3444C107.835 64.8134 104.457 36.3959 84.8236 20.993L84.7477 20.9353L80.6157 26.1465L80.6246 26.151ZM85.9436 86.8879L85.899 86.9278C85.0868 87.678 84.239 88.3971 83.3823 89.0673L81.3832 86.5549C82.1775 85.9335 82.9539 85.2677 83.7036 84.5841L83.7526 84.5353L85.9391 86.8879H85.9436ZM89.4419 83.248C88.7191 84.0958 87.9516 84.9259 87.1573 85.7204L84.8771 83.4611C85.6089 82.7286 86.3184 81.9607 86.9877 81.1795L89.4464 83.2524L89.4419 83.248ZM60.8125 90.6209C51.6159 91.704 42.5442 89.1561 35.2753 83.4522C28.0063 77.7482 23.3969 69.5674 22.3126 60.419C21.2238 51.2705 23.7851 42.2463 29.519 35.0154C35.253 27.7845 43.4768 23.2036 52.6734 22.1205C61.87 21.0374 70.9417 23.5853 78.2106 29.2892C85.4795 34.9932 90.089 43.174 91.1733 52.3225C92.2621 61.471 89.7007 70.4952 83.9668 77.7261C78.2329 84.957 70.0091 89.5423 60.8125 90.6209ZM90.5084 81.9474L87.9694 79.9766C88.6075 79.1642 89.2188 78.3164 89.7855 77.4597L92.4762 79.2219C91.8605 80.1541 91.2001 81.073 90.5084 81.9518V81.9474ZM93.3776 77.7971L90.6155 76.1458C91.1465 75.2625 91.6507 74.3481 92.1103 73.4292L94.9974 74.8541C94.4976 75.8529 93.9532 76.8427 93.3776 77.8015V77.7971ZM95.7158 73.336L92.7752 72.031C93.1947 71.09 93.5829 70.1223 93.9265 69.1546L96.9652 70.2199C96.5949 71.272 96.1709 72.3195 95.7158 73.336ZM97.4918 68.6264L94.4128 67.6809C94.7163 66.6999 94.984 65.6923 95.2071 64.6847L98.353 65.3772C98.112 66.4691 97.822 67.5611 97.4918 68.622V68.6264ZM98.6876 63.7348L95.5195 63.1666C95.7024 62.1545 95.8452 61.1203 95.9478 60.0949L99.1517 60.4101C99.0401 61.5198 98.884 62.6384 98.6876 63.7348ZM99.2856 58.7366L96.0683 58.5502C96.1263 57.5204 96.1486 56.4772 96.1263 55.4474L99.348 55.3764C99.3748 56.4906 99.348 57.618 99.2856 58.7322V58.7366ZM99.2766 53.703L96.0639 53.9027C96.0014 52.8729 95.8943 51.8386 95.747 50.8177L98.9375 50.3649C99.0982 51.4702 99.2142 52.5932 99.2811 53.7074L99.2766 53.703ZM98.6564 48.7048L95.4882 49.2863C95.3008 48.2742 95.0688 47.2577 94.8011 46.2634L97.9112 45.4289C98.2012 46.5076 98.4556 47.6084 98.6564 48.7048ZM97.4382 43.8132L94.3638 44.772C94.0559 43.7866 93.6989 42.8056 93.3107 41.8512L96.2959 40.6483C96.7153 41.6825 97.0991 42.7479 97.4382 43.8132ZM95.631 39.0991L92.6994 40.4219C92.271 39.4853 91.8025 38.5531 91.2982 37.652L94.1139 36.0984C94.6583 37.075 95.167 38.0826 95.631 39.0991ZM93.266 34.6469L90.5173 36.316C89.9774 35.4371 89.3973 34.5715 88.7905 33.737L91.3964 31.8549C92.0568 32.756 92.686 33.697 93.266 34.6514V34.6469ZM88.2148 28.002C88.9645 28.8098 89.6918 29.6577 90.3745 30.5144L87.8445 32.4985C87.2153 31.704 86.5415 30.9227 85.8499 30.177L85.8186 30.1415L88.1836 27.9665L88.2148 28.002ZM87.01 26.7591L84.7343 29.0273C83.9981 28.2994 83.2261 27.5936 82.4407 26.9278L84.5246 24.4864C85.3769 25.2055 86.2113 25.969 87.0056 26.7591H87.01Z" fill="#B7FFFA"/>
    <path d="M55.4801 105.442C28.8631 105.442 7.21247 83.4389 7.21247 56.393C7.21247 29.347 28.8631 7.34357 55.4801 7.34357V7.78746C29.1085 7.78746 7.6587 29.5911 7.6587 56.393C7.6587 83.1948 29.113 104.998 55.4801 104.998C81.8473 104.998 103.302 83.1948 103.302 56.393V56.171L127.299 56.2465L127.362 56.2997L148.08 73.4826H357.714V73.9264H147.919L127.139 56.6904L103.748 56.6149C103.627 83.5588 82.0213 105.442 55.4801 105.442Z" fill="#B7FFFA"/>
</svg>
