<svg xmlns="http://www.w3.org/2000/svg" width="22" height="22" viewBox="0 0 22 22" fill="none">
    <path d="M20.46 6.57252C20.3491 6.13828 20.1778 5.72173 19.9513 5.33502C19.7336 4.93273 19.4554 4.56636 19.1263 4.24877C18.6491 3.7732 18.084 3.39494 17.4625 3.13502C16.2115 2.62158 14.8085 2.62158 13.5575 3.13502C12.9701 3.38367 12.4303 3.73262 11.9625 4.16627L11.8938 4.24877L11 5.14252L10.1063 4.24877L10.0375 4.16627C9.56967 3.73262 9.02995 3.38367 8.44251 3.13502C7.19147 2.62158 5.78854 2.62158 4.53751 3.13502C3.91598 3.39494 3.35092 3.7732 2.87376 4.24877C2.22113 4.88379 1.75914 5.68869 1.54001 6.57252C1.42343 7.02135 1.36793 7.48385 1.37501 7.94752C1.37501 8.38477 1.43001 8.81927 1.54001 9.24002C1.65528 9.66633 1.82147 10.0772 2.03501 10.4638C2.26561 10.8612 2.54763 11.2264 2.87376 11.55L11 19.6763L19.1263 11.55C19.4521 11.231 19.7313 10.8653 19.9513 10.4638C20.3978 9.70079 20.6306 8.83157 20.625 7.94752C20.6321 7.48385 20.5766 7.02134 20.46 6.57252Z" fill="black"/>
</svg>