<svg width="32" height="32" viewBox="0 0 32 32" fill="none"
  xmlns="http://www.w3.org/2000/svg">
  <g clip-path="url(#clip0_6_340)">
    <path d="M13.8843 14.76C13.4734 15.4511 7.06255 15.5672 3.56513 13.6071C0.0677199 11.6471 1.7669 5.65408 5.31432 4.0804C8.86174 2.50671 14.2953 14.0691 13.8843 14.76Z" fill="#B7FFFA" />
    <path d="M13.8358 17.1586C14.2468 17.8496 11.1451 23.2967 7.64763 25.2568C4.15021 27.2168 -0.347022 22.792 0.0226769 19.0231C0.392377 15.2541 13.4248 16.4676 13.8358 17.1586Z" fill="#B7FFFA" />
    <path d="M15.9515 18.3985C16.7735 18.3985 20.0824 23.7297 20.0824 27.6497C20.0824 31.5697 13.886 33.1379 10.7083 30.9426C7.53059 28.7474 15.1295 18.3985 15.9515 18.3985Z" fill="#B7FFFA" />
    <path d="M18.1157 17.2404C18.5266 16.5493 24.9375 16.4333 28.4348 18.3933C31.9322 20.3534 30.2331 26.3463 26.6857 27.92C23.1382 29.4937 17.7047 17.9313 18.1157 17.2404Z" fill="#B7FFFA" />
    <path d="M18.1642 14.8414C17.7532 14.1504 20.855 8.70325 24.3524 6.74315C27.8499 4.78312 32.3471 9.20805 31.9774 12.9769C31.6077 16.7459 18.5752 15.5324 18.1642 14.8414Z" fill="#B7FFFA" />
    <path d="M16.0485 13.6015C15.2264 13.6015 11.9175 8.27036 11.9175 4.35028C11.9175 0.430193 18.1139 -1.13791 21.2916 1.05734C24.4694 3.2526 16.8704 13.6016 16.0485 13.6015Z" fill="#B7FFFA" />
  </g>
  <defs>
    <clipPath id="clip0_6_340">
      <rect width="32" height="32" fill="#B7FFFA" />
    </clipPath>
  </defs>
</svg>