<svg width="32" height="26" viewBox="0 0 32 26" fill="none"
    xmlns="http://www.w3.org/2000/svg">
    <path d="M31.9264 3.09681C30.7288 3.62408 29.4601 3.97213 28.1612 4.12975C29.5288 3.30773 30.5528 2.01862 31.044 0.500481C29.7765 1.2402 28.3717 1.77866 26.8763 2.07854C25.8897 1.02352 24.5824 0.323777 23.1573 0.0879749C21.7322 -0.147828 20.2691 0.0935047 18.9953 0.774496C17.7214 1.45549 16.708 2.53803 16.1125 3.85402C15.517 5.17001 15.3727 6.64581 15.702 8.05224C10.2507 7.795 5.41925 5.17735 2.18583 1.2202C1.59778 2.21957 1.29105 3.35941 1.29817 4.51893C1.29817 6.79806 2.45772 8.80128 4.21438 9.97816C3.17326 9.94502 2.15513 9.66353 1.24485 9.15715V9.23845C1.24426 10.7531 1.76768 12.2212 2.72629 13.3939C3.68491 14.5665 5.01968 15.3714 6.50416 15.672C5.54226 15.9297 4.5348 15.9684 3.55596 15.7853C3.97747 17.0887 4.79526 18.228 5.89526 19.0444C6.99527 19.8608 8.32265 20.3136 9.69227 20.3395C7.37248 22.16 4.50822 23.1481 1.5594 23.1451C1.0396 23.1451 0.521133 23.1144 0 23.0558C3.00645 24.9808 6.50218 26.0027 10.0721 26C22.1395 26 28.7303 16.0092 28.7303 7.35917C28.7303 7.08061 28.7303 6.79939 28.7103 6.5195C29.9978 5.59298 31.1083 4.4427 31.989 3.12347L31.9264 3.09681Z" fill="white"/>
</svg>
